<mxfile host="app.diagrams.net" modified="2024-02-23T13:16:43.821Z" agent="Mozilla/5.0 (Windows NT 10.0; Win64; x64; rv:109.0) Gecko/20100101 Firefox/115.0" etag="KCN2Rzvn6VUUZ6IYBsT3" version="23.1.6" type="github" pages="4">
  <diagram name="MCD" id="7uNoocjnPfuMkWGGjL7G">
    <mxGraphModel dx="1674" dy="746" grid="1" gridSize="10" guides="1" tooltips="1" connect="1" arrows="1" fold="1" page="1" pageScale="1" pageWidth="827" pageHeight="1169" math="0" shadow="0">
      <root>
        <mxCell id="0" />
        <mxCell id="1" parent="0" />
        <mxCell id="_DGyXq30pLgu2IKX0cHf-1" value="User" style="swimlane;fontStyle=0;childLayout=stackLayout;horizontal=1;startSize=26;horizontalStack=0;resizeParent=1;resizeParentMax=0;resizeLast=0;collapsible=1;marginBottom=0;align=center;fontSize=14;" parent="1" vertex="1">
          <mxGeometry x="330" y="200" width="160" height="80" as="geometry" />
        </mxCell>
        <mxCell id="_DGyXq30pLgu2IKX0cHf-2" value="id&lt;br&gt;email&lt;br&gt;&lt;div&gt;password&lt;br&gt;&lt;/div&gt;" style="text;strokeColor=none;fillColor=none;spacingLeft=4;spacingRight=4;overflow=hidden;rotatable=0;points=[[0,0.5],[1,0.5]];portConstraint=eastwest;fontSize=12;whiteSpace=wrap;html=1;" parent="_DGyXq30pLgu2IKX0cHf-1" vertex="1">
          <mxGeometry y="26" width="160" height="54" as="geometry" />
        </mxCell>
        <mxCell id="_DGyXq30pLgu2IKX0cHf-5" value="Token" style="swimlane;fontStyle=0;childLayout=stackLayout;horizontal=1;startSize=26;horizontalStack=0;resizeParent=1;resizeParentMax=0;resizeLast=0;collapsible=1;marginBottom=0;align=center;fontSize=14;" parent="1" vertex="1">
          <mxGeometry x="610" width="160" height="160" as="geometry" />
        </mxCell>
        <mxCell id="_DGyXq30pLgu2IKX0cHf-6" value="&lt;div&gt;id&lt;br&gt;&lt;/div&gt;&lt;div&gt;token&lt;/div&gt;tokenType&lt;div&gt;revoked&lt;br&gt;expired&lt;/div&gt;&lt;div&gt;&lt;font color=&quot;#ff3333&quot;&gt;user_id&lt;/font&gt;&lt;/div&gt;" style="text;strokeColor=none;fillColor=none;spacingLeft=4;spacingRight=4;overflow=hidden;rotatable=0;points=[[0,0.5],[1,0.5]];portConstraint=eastwest;fontSize=12;whiteSpace=wrap;html=1;" parent="_DGyXq30pLgu2IKX0cHf-5" vertex="1">
          <mxGeometry y="26" width="160" height="134" as="geometry" />
        </mxCell>
        <mxCell id="_DGyXq30pLgu2IKX0cHf-10" value="Blog" style="swimlane;fontStyle=0;childLayout=stackLayout;horizontal=1;startSize=26;horizontalStack=0;resizeParent=1;resizeParentMax=0;resizeLast=0;collapsible=1;marginBottom=0;align=center;fontSize=14;" parent="1" vertex="1">
          <mxGeometry x="40" y="10" width="160" height="110" as="geometry" />
        </mxCell>
        <mxCell id="i-CkbBjb4GFoubKCuzBH-41" style="edgeStyle=orthogonalEdgeStyle;rounded=0;orthogonalLoop=1;jettySize=auto;html=1;elbow=vertical;" parent="_DGyXq30pLgu2IKX0cHf-10" source="_DGyXq30pLgu2IKX0cHf-11" edge="1">
          <mxGeometry relative="1" as="geometry">
            <mxPoint x="290" y="230" as="targetPoint" />
            <Array as="points">
              <mxPoint x="-10" y="90" />
              <mxPoint x="-10" y="230" />
            </Array>
          </mxGeometry>
        </mxCell>
        <mxCell id="_DGyXq30pLgu2IKX0cHf-11" value="&lt;div&gt;id&lt;br&gt;&lt;/div&gt;&lt;div&gt;title&lt;/div&gt;&lt;div&gt;&lt;font color=&quot;#ff3333&quot;&gt;category_id&lt;/font&gt;&lt;/div&gt;&lt;div&gt;&lt;font color=&quot;#ff3333&quot;&gt;user_id&lt;/font&gt;&lt;br&gt;&lt;/div&gt;" style="text;strokeColor=none;fillColor=none;spacingLeft=4;spacingRight=4;overflow=hidden;rotatable=0;points=[[0,0.5],[1,0.5]];portConstraint=eastwest;fontSize=12;whiteSpace=wrap;html=1;" parent="_DGyXq30pLgu2IKX0cHf-10" vertex="1">
          <mxGeometry y="26" width="160" height="84" as="geometry" />
        </mxCell>
        <mxCell id="_DGyXq30pLgu2IKX0cHf-12" value="Article" style="swimlane;fontStyle=0;childLayout=stackLayout;horizontal=1;startSize=26;horizontalStack=0;resizeParent=1;resizeParentMax=0;resizeLast=0;collapsible=1;marginBottom=0;align=center;fontSize=14;" parent="1" vertex="1">
          <mxGeometry x="320" width="160" height="120" as="geometry" />
        </mxCell>
        <mxCell id="_DGyXq30pLgu2IKX0cHf-13" value="&lt;div&gt;id&lt;br&gt;&lt;/div&gt;&lt;div&gt;title&lt;/div&gt;&lt;div&gt;content&lt;/div&gt;&lt;div&gt;isSaved&lt;br&gt;&lt;/div&gt;&lt;div&gt;&lt;font color=&quot;#ff0000&quot;&gt;blog_id&lt;br&gt;user_id&lt;/font&gt;&lt;br&gt;&lt;/div&gt;" style="text;strokeColor=none;fillColor=none;spacingLeft=4;spacingRight=4;overflow=hidden;rotatable=0;points=[[0,0.5],[1,0.5]];portConstraint=eastwest;fontSize=12;whiteSpace=wrap;html=1;" parent="_DGyXq30pLgu2IKX0cHf-12" vertex="1">
          <mxGeometry y="26" width="160" height="94" as="geometry" />
        </mxCell>
        <mxCell id="_DGyXq30pLgu2IKX0cHf-14" value="Comment" style="swimlane;fontStyle=0;childLayout=stackLayout;horizontal=1;startSize=26;horizontalStack=0;resizeParent=1;resizeParentMax=0;resizeLast=0;collapsible=1;marginBottom=0;align=center;fontSize=14;" parent="1" vertex="1">
          <mxGeometry x="610" y="250" width="160" height="110" as="geometry" />
        </mxCell>
        <mxCell id="_DGyXq30pLgu2IKX0cHf-15" value="&lt;div&gt;id&lt;br&gt;&lt;/div&gt;&lt;div&gt;content&lt;/div&gt;&lt;div&gt;isSaved&lt;br&gt;&lt;/div&gt;&lt;div&gt;&lt;font color=&quot;#ff0000&quot;&gt;user_id&lt;/font&gt;&lt;/div&gt;" style="text;strokeColor=none;fillColor=none;spacingLeft=4;spacingRight=4;overflow=hidden;rotatable=0;points=[[0,0.5],[1,0.5]];portConstraint=eastwest;fontSize=12;whiteSpace=wrap;html=1;" parent="_DGyXq30pLgu2IKX0cHf-14" vertex="1">
          <mxGeometry y="26" width="160" height="84" as="geometry" />
        </mxCell>
        <mxCell id="i-CkbBjb4GFoubKCuzBH-4" value="Category" style="swimlane;fontStyle=0;childLayout=stackLayout;horizontal=1;startSize=26;horizontalStack=0;resizeParent=1;resizeParentMax=0;resizeLast=0;collapsible=1;marginBottom=0;align=center;fontSize=14;" parent="1" vertex="1">
          <mxGeometry x="50" y="290" width="160" height="70" as="geometry" />
        </mxCell>
        <mxCell id="i-CkbBjb4GFoubKCuzBH-5" value="&lt;div&gt;id&lt;br&gt;&lt;/div&gt;&lt;div&gt;name&lt;br&gt;&lt;/div&gt;&lt;div&gt;&lt;br&gt;&lt;/div&gt;" style="text;strokeColor=none;fillColor=none;spacingLeft=4;spacingRight=4;overflow=hidden;rotatable=0;points=[[0,0.5],[1,0.5]];portConstraint=eastwest;fontSize=12;whiteSpace=wrap;html=1;" parent="i-CkbBjb4GFoubKCuzBH-4" vertex="1">
          <mxGeometry y="26" width="160" height="44" as="geometry" />
        </mxCell>
        <mxCell id="i-CkbBjb4GFoubKCuzBH-25" value="&lt;font color=&quot;#ff3333&quot;&gt;1&lt;/font&gt;" style="ellipse;whiteSpace=wrap;html=1;" parent="1" vertex="1">
          <mxGeometry x="340" y="130" width="30" height="30" as="geometry" />
        </mxCell>
        <mxCell id="i-CkbBjb4GFoubKCuzBH-29" value="N" style="ellipse;whiteSpace=wrap;html=1;" parent="1" vertex="1">
          <mxGeometry x="385" y="130" width="30" height="30" as="geometry" />
        </mxCell>
        <mxCell id="i-CkbBjb4GFoubKCuzBH-34" style="edgeStyle=orthogonalEdgeStyle;rounded=0;orthogonalLoop=1;jettySize=auto;html=1;entryX=1.006;entryY=0.107;entryDx=0;entryDy=0;entryPerimeter=0;elbow=vertical;" parent="1" source="_DGyXq30pLgu2IKX0cHf-13" target="_DGyXq30pLgu2IKX0cHf-11" edge="1">
          <mxGeometry relative="1" as="geometry">
            <Array as="points">
              <mxPoint x="260" y="100" />
              <mxPoint x="260" y="45" />
            </Array>
          </mxGeometry>
        </mxCell>
        <mxCell id="i-CkbBjb4GFoubKCuzBH-35" value="&lt;font color=&quot;#ff3333&quot;&gt;1&lt;/font&gt;" style="ellipse;whiteSpace=wrap;html=1;" parent="1" vertex="1">
          <mxGeometry x="280" y="70" width="30" height="30" as="geometry" />
        </mxCell>
        <mxCell id="i-CkbBjb4GFoubKCuzBH-36" value="N" style="ellipse;whiteSpace=wrap;html=1;" parent="1" vertex="1">
          <mxGeometry x="210" y="20" width="30" height="30" as="geometry" />
        </mxCell>
        <mxCell id="i-CkbBjb4GFoubKCuzBH-38" style="edgeStyle=orthogonalEdgeStyle;rounded=0;orthogonalLoop=1;jettySize=auto;html=1;entryX=0.006;entryY=0.315;entryDx=0;entryDy=0;entryPerimeter=0;elbow=vertical;" parent="1" source="_DGyXq30pLgu2IKX0cHf-13" target="_DGyXq30pLgu2IKX0cHf-2" edge="1">
          <mxGeometry relative="1" as="geometry">
            <Array as="points">
              <mxPoint x="290" y="110" />
              <mxPoint x="290" y="243" />
            </Array>
          </mxGeometry>
        </mxCell>
        <mxCell id="i-CkbBjb4GFoubKCuzBH-39" value="&lt;font color=&quot;#ff3333&quot;&gt;1&lt;/font&gt;" style="ellipse;whiteSpace=wrap;html=1;" parent="1" vertex="1">
          <mxGeometry x="290" y="110" width="30" height="30" as="geometry" />
        </mxCell>
        <mxCell id="i-CkbBjb4GFoubKCuzBH-40" value="N" style="ellipse;whiteSpace=wrap;html=1;" parent="1" vertex="1">
          <mxGeometry x="260" y="210" width="30" height="30" as="geometry" />
        </mxCell>
        <mxCell id="i-CkbBjb4GFoubKCuzBH-42" style="edgeStyle=orthogonalEdgeStyle;rounded=0;orthogonalLoop=1;jettySize=auto;html=1;entryX=0;entryY=0.5;entryDx=0;entryDy=0;elbow=vertical;" parent="1" source="_DGyXq30pLgu2IKX0cHf-11" target="i-CkbBjb4GFoubKCuzBH-5" edge="1">
          <mxGeometry relative="1" as="geometry">
            <Array as="points">
              <mxPoint x="10" y="80" />
              <mxPoint x="10" y="338" />
            </Array>
          </mxGeometry>
        </mxCell>
        <mxCell id="i-CkbBjb4GFoubKCuzBH-43" style="edgeStyle=orthogonalEdgeStyle;rounded=0;orthogonalLoop=1;jettySize=auto;html=1;entryX=1.031;entryY=0.296;entryDx=0;entryDy=0;entryPerimeter=0;elbow=vertical;" parent="1" source="_DGyXq30pLgu2IKX0cHf-6" target="_DGyXq30pLgu2IKX0cHf-2" edge="1">
          <mxGeometry relative="1" as="geometry">
            <Array as="points">
              <mxPoint x="550" y="110" />
              <mxPoint x="550" y="242" />
            </Array>
          </mxGeometry>
        </mxCell>
        <mxCell id="i-CkbBjb4GFoubKCuzBH-45" style="edgeStyle=orthogonalEdgeStyle;rounded=0;orthogonalLoop=1;jettySize=auto;html=1;entryX=1;entryY=0.296;entryDx=0;entryDy=0;entryPerimeter=0;elbow=vertical;" parent="1" source="_DGyXq30pLgu2IKX0cHf-15" target="_DGyXq30pLgu2IKX0cHf-2" edge="1">
          <mxGeometry relative="1" as="geometry">
            <Array as="points">
              <mxPoint x="550" y="330" />
              <mxPoint x="550" y="242" />
            </Array>
          </mxGeometry>
        </mxCell>
        <mxCell id="i-CkbBjb4GFoubKCuzBH-46" value="&lt;font color=&quot;#ff3333&quot;&gt;1&lt;/font&gt;" style="ellipse;whiteSpace=wrap;html=1;" parent="1" vertex="1">
          <mxGeometry x="580" y="80" width="30" height="30" as="geometry" />
        </mxCell>
        <mxCell id="i-CkbBjb4GFoubKCuzBH-47" value="&lt;font color=&quot;#ff3333&quot;&gt;1&lt;/font&gt;" style="ellipse;whiteSpace=wrap;html=1;" parent="1" vertex="1">
          <mxGeometry x="580" y="300" width="30" height="30" as="geometry" />
        </mxCell>
        <mxCell id="i-CkbBjb4GFoubKCuzBH-48" value="N" style="ellipse;whiteSpace=wrap;html=1;" parent="1" vertex="1">
          <mxGeometry x="510" y="210" width="30" height="30" as="geometry" />
        </mxCell>
        <mxCell id="i-CkbBjb4GFoubKCuzBH-50" value="&lt;font color=&quot;#ff3333&quot;&gt;1&lt;/font&gt;" style="ellipse;whiteSpace=wrap;html=1;" parent="1" vertex="1">
          <mxGeometry x="10" y="50" width="30" height="30" as="geometry" />
        </mxCell>
        <mxCell id="i-CkbBjb4GFoubKCuzBH-52" value="&lt;font color=&quot;#ff3333&quot;&gt;1&lt;/font&gt;" style="ellipse;whiteSpace=wrap;html=1;" parent="1" vertex="1">
          <mxGeometry x="30" y="130" width="30" height="30" as="geometry" />
        </mxCell>
        <mxCell id="i-CkbBjb4GFoubKCuzBH-54" value="N" style="ellipse;whiteSpace=wrap;html=1;" parent="1" vertex="1">
          <mxGeometry x="10" y="310" width="30" height="30" as="geometry" />
        </mxCell>
      </root>
    </mxGraphModel>
  </diagram>
  <diagram id="jdQ14IyaMErAi51tV57a" name="MLD">
    <mxGraphModel dx="1674" dy="746" grid="1" gridSize="10" guides="1" tooltips="1" connect="1" arrows="1" fold="1" page="1" pageScale="1" pageWidth="827" pageHeight="1169" math="0" shadow="0">
      <root>
        <mxCell id="0" />
        <mxCell id="1" parent="0" />
        <mxCell id="7sohZnCMhDuAHwAX3Afr-1" value="User" style="swimlane;fontStyle=0;childLayout=stackLayout;horizontal=1;startSize=26;horizontalStack=0;resizeParent=1;resizeParentMax=0;resizeLast=0;collapsible=1;marginBottom=0;align=center;fontSize=14;" parent="1" vertex="1">
          <mxGeometry x="340" y="210" width="160" height="130" as="geometry" />
        </mxCell>
        <mxCell id="7sohZnCMhDuAHwAX3Afr-2" value="&lt;div&gt;id: &lt;font style=&quot;font-size: 10px;&quot;&gt;&lt;i&gt;SERIAL_PRIMARY KEY&lt;/i&gt;&lt;/font&gt;&lt;/div&gt;email&lt;i&gt;: &lt;/i&gt;&lt;font style=&quot;font-size: 10px;&quot;&gt;&lt;i&gt;varchar (50) NOT NULL&lt;/i&gt;&lt;/font&gt;&lt;div&gt;password:  &lt;font style=&quot;font-size: 10px;&quot;&gt;&lt;i&gt;varchar (50) NOT NULL&lt;/i&gt;&lt;/font&gt;&lt;/div&gt;&lt;div&gt;&lt;font style=&quot;font-size: 10px;&quot;&gt;&lt;i&gt;username: &lt;/i&gt;&lt;/font&gt;&lt;i&gt;&lt;/i&gt;&lt;font style=&quot;font-size: 10px;&quot;&gt;&lt;i&gt;varchar (50) NOT NULL&lt;/i&gt;&lt;/font&gt;&lt;/div&gt;" style="text;strokeColor=none;fillColor=none;spacingLeft=4;spacingRight=4;overflow=hidden;rotatable=0;points=[[0,0.5],[1,0.5]];portConstraint=eastwest;fontSize=12;whiteSpace=wrap;html=1;" parent="7sohZnCMhDuAHwAX3Afr-1" vertex="1">
          <mxGeometry y="26" width="160" height="104" as="geometry" />
        </mxCell>
        <mxCell id="7sohZnCMhDuAHwAX3Afr-4" value="Blog" style="swimlane;fontStyle=0;childLayout=stackLayout;horizontal=1;startSize=26;horizontalStack=0;resizeParent=1;resizeParentMax=0;resizeLast=0;collapsible=1;marginBottom=0;align=center;fontSize=14;" parent="1" vertex="1">
          <mxGeometry x="50" y="20" width="160" height="110" as="geometry" />
        </mxCell>
        <mxCell id="7sohZnCMhDuAHwAX3Afr-6" value="&lt;div&gt;id: &lt;font style=&quot;font-size: 10px;&quot;&gt;&lt;i&gt;SERIAL_PRIMARY KEY&lt;/i&gt;&lt;/font&gt;&lt;/div&gt;&lt;div&gt;title:&lt;i&gt;&lt;/i&gt;&lt;font style=&quot;font-size: 10px;&quot;&gt;&lt;i&gt;varchar (50) NOT NULL&lt;/i&gt;&lt;/font&gt;&lt;/div&gt;&lt;div&gt;&lt;font color=&quot;#ff3333&quot;&gt;category_id&lt;/font&gt;:&lt;font style=&quot;font-size: 10px;&quot;&gt;&lt;i&gt; int NOT NULL&lt;/i&gt;&lt;/font&gt;&lt;/div&gt;&lt;div&gt;&lt;font color=&quot;#ff3333&quot;&gt;user_id&lt;/font&gt;:&lt;font style=&quot;font-size: 10px;&quot;&gt;&lt;i&gt; int NOT NULL&lt;/i&gt;&lt;/font&gt;&lt;/div&gt;" style="text;strokeColor=none;fillColor=none;spacingLeft=4;spacingRight=4;overflow=hidden;rotatable=0;points=[[0,0.5],[1,0.5]];portConstraint=eastwest;fontSize=12;whiteSpace=wrap;html=1;" parent="7sohZnCMhDuAHwAX3Afr-4" vertex="1">
          <mxGeometry y="26" width="160" height="84" as="geometry" />
        </mxCell>
        <mxCell id="7sohZnCMhDuAHwAX3Afr-8" value="Comment" style="swimlane;fontStyle=0;childLayout=stackLayout;horizontal=1;startSize=26;horizontalStack=0;resizeParent=1;resizeParentMax=0;resizeLast=0;collapsible=1;marginBottom=0;align=center;fontSize=14;" parent="1" vertex="1">
          <mxGeometry x="620" y="260" width="180" height="110" as="geometry" />
        </mxCell>
        <mxCell id="7sohZnCMhDuAHwAX3Afr-9" value="&lt;div&gt;id: &lt;font style=&quot;font-size: 10px;&quot;&gt;&lt;i&gt;SERIAL_PRIMARY KEY&lt;/i&gt;&lt;/font&gt;&lt;/div&gt;&lt;div&gt;content: &lt;font style=&quot;font-size: 10px;&quot;&gt;&lt;i&gt;varchar (255) NOT NULL&lt;/i&gt;&lt;/font&gt;&lt;/div&gt;&lt;div&gt;&lt;font color=&quot;#ff0000&quot;&gt;user_id&lt;/font&gt;:&lt;font style=&quot;font-size: 10px;&quot;&gt;&lt;i&gt; int NOT NULL&lt;/i&gt;&lt;/font&gt;&lt;/div&gt;" style="text;strokeColor=none;fillColor=none;spacingLeft=4;spacingRight=4;overflow=hidden;rotatable=0;points=[[0,0.5],[1,0.5]];portConstraint=eastwest;fontSize=12;whiteSpace=wrap;html=1;" parent="7sohZnCMhDuAHwAX3Afr-8" vertex="1">
          <mxGeometry y="26" width="180" height="84" as="geometry" />
        </mxCell>
        <mxCell id="7sohZnCMhDuAHwAX3Afr-10" value="Category" style="swimlane;fontStyle=0;childLayout=stackLayout;horizontal=1;startSize=26;horizontalStack=0;resizeParent=1;resizeParentMax=0;resizeLast=0;collapsible=1;marginBottom=0;align=center;fontSize=14;" parent="1" vertex="1">
          <mxGeometry x="60" y="300" width="160" height="70" as="geometry" />
        </mxCell>
        <mxCell id="7sohZnCMhDuAHwAX3Afr-11" value="&lt;div&gt;id: &lt;font style=&quot;font-size: 10px;&quot;&gt;&lt;i&gt;SERIAL_PRIMARY KEY&lt;/i&gt;&lt;/font&gt;&lt;/div&gt;&lt;div&gt;name:&lt;i&gt;&lt;/i&gt;&lt;font style=&quot;font-size: 10px;&quot;&gt;&lt;i&gt;varchar (50) NOT NULL&lt;/i&gt;&lt;/font&gt;&lt;/div&gt;&lt;div&gt;&lt;br&gt;&lt;/div&gt;" style="text;strokeColor=none;fillColor=none;spacingLeft=4;spacingRight=4;overflow=hidden;rotatable=0;points=[[0,0.5],[1,0.5]];portConstraint=eastwest;fontSize=12;whiteSpace=wrap;html=1;" parent="7sohZnCMhDuAHwAX3Afr-10" vertex="1">
          <mxGeometry y="26" width="160" height="44" as="geometry" />
        </mxCell>
        <mxCell id="7sohZnCMhDuAHwAX3Afr-12" value="&lt;font color=&quot;#ff3333&quot;&gt;1&lt;/font&gt;" style="ellipse;whiteSpace=wrap;html=1;" parent="1" vertex="1">
          <mxGeometry x="280" y="130" width="30" height="30" as="geometry" />
        </mxCell>
        <mxCell id="7sohZnCMhDuAHwAX3Afr-13" value="N" style="ellipse;whiteSpace=wrap;html=1;" parent="1" vertex="1">
          <mxGeometry x="550" y="10" width="30" height="30" as="geometry" />
        </mxCell>
        <mxCell id="7sohZnCMhDuAHwAX3Afr-14" style="edgeStyle=orthogonalEdgeStyle;rounded=0;orthogonalLoop=1;jettySize=auto;html=1;entryX=1.006;entryY=0.107;entryDx=0;entryDy=0;entryPerimeter=0;elbow=vertical;" parent="1" target="7sohZnCMhDuAHwAX3Afr-6" edge="1">
          <mxGeometry relative="1" as="geometry">
            <Array as="points">
              <mxPoint x="270" y="110" />
              <mxPoint x="270" y="55" />
            </Array>
            <mxPoint x="330" y="110" as="sourcePoint" />
          </mxGeometry>
        </mxCell>
        <mxCell id="7sohZnCMhDuAHwAX3Afr-15" value="&lt;font color=&quot;#ff3333&quot;&gt;1&lt;/font&gt;" style="ellipse;whiteSpace=wrap;html=1;" parent="1" vertex="1">
          <mxGeometry x="290" y="80" width="30" height="30" as="geometry" />
        </mxCell>
        <mxCell id="7sohZnCMhDuAHwAX3Afr-16" value="N" style="ellipse;whiteSpace=wrap;html=1;" parent="1" vertex="1">
          <mxGeometry x="220" y="30" width="30" height="30" as="geometry" />
        </mxCell>
        <mxCell id="7sohZnCMhDuAHwAX3Afr-19" value="N" style="ellipse;whiteSpace=wrap;html=1;" parent="1" vertex="1">
          <mxGeometry x="280" y="220" width="30" height="30" as="geometry" />
        </mxCell>
        <mxCell id="7sohZnCMhDuAHwAX3Afr-20" style="edgeStyle=orthogonalEdgeStyle;rounded=0;orthogonalLoop=1;jettySize=auto;html=1;entryX=0;entryY=0.5;entryDx=0;entryDy=0;elbow=vertical;" parent="1" source="7sohZnCMhDuAHwAX3Afr-6" target="7sohZnCMhDuAHwAX3Afr-11" edge="1">
          <mxGeometry relative="1" as="geometry">
            <Array as="points">
              <mxPoint x="20" y="90" />
              <mxPoint x="20" y="348" />
            </Array>
          </mxGeometry>
        </mxCell>
        <mxCell id="7sohZnCMhDuAHwAX3Afr-21" style="edgeStyle=orthogonalEdgeStyle;rounded=0;orthogonalLoop=1;jettySize=auto;html=1;entryX=1.031;entryY=0.296;entryDx=0;entryDy=0;entryPerimeter=0;elbow=vertical;" parent="1" target="7sohZnCMhDuAHwAX3Afr-2" edge="1">
          <mxGeometry relative="1" as="geometry">
            <Array as="points">
              <mxPoint x="560" y="120" />
              <mxPoint x="560" y="252" />
            </Array>
            <mxPoint x="620" y="120" as="sourcePoint" />
          </mxGeometry>
        </mxCell>
        <mxCell id="7sohZnCMhDuAHwAX3Afr-22" style="edgeStyle=orthogonalEdgeStyle;rounded=0;orthogonalLoop=1;jettySize=auto;html=1;entryX=1;entryY=0.296;entryDx=0;entryDy=0;entryPerimeter=0;elbow=vertical;" parent="1" source="7sohZnCMhDuAHwAX3Afr-9" target="7sohZnCMhDuAHwAX3Afr-2" edge="1">
          <mxGeometry relative="1" as="geometry">
            <Array as="points">
              <mxPoint x="560" y="340" />
              <mxPoint x="560" y="252" />
            </Array>
          </mxGeometry>
        </mxCell>
        <mxCell id="7sohZnCMhDuAHwAX3Afr-23" value="&lt;font color=&quot;#ff3333&quot;&gt;1&lt;/font&gt;" style="ellipse;whiteSpace=wrap;html=1;" parent="1" vertex="1">
          <mxGeometry x="590" y="90" width="30" height="30" as="geometry" />
        </mxCell>
        <mxCell id="7sohZnCMhDuAHwAX3Afr-24" value="&lt;font color=&quot;#ff3333&quot;&gt;1&lt;/font&gt;" style="ellipse;whiteSpace=wrap;html=1;" parent="1" vertex="1">
          <mxGeometry x="590" y="310" width="30" height="30" as="geometry" />
        </mxCell>
        <mxCell id="7sohZnCMhDuAHwAX3Afr-25" value="N" style="ellipse;whiteSpace=wrap;html=1;" parent="1" vertex="1">
          <mxGeometry x="520" y="220" width="30" height="30" as="geometry" />
        </mxCell>
        <mxCell id="7sohZnCMhDuAHwAX3Afr-26" value="&lt;font color=&quot;#ff3333&quot;&gt;1&lt;/font&gt;" style="ellipse;whiteSpace=wrap;html=1;" parent="1" vertex="1">
          <mxGeometry x="20" y="60" width="30" height="30" as="geometry" />
        </mxCell>
        <mxCell id="7sohZnCMhDuAHwAX3Afr-27" value="&lt;font color=&quot;#ff3333&quot;&gt;1&lt;/font&gt;" style="ellipse;whiteSpace=wrap;html=1;" parent="1" vertex="1">
          <mxGeometry x="40" y="160" width="30" height="30" as="geometry" />
        </mxCell>
        <mxCell id="7sohZnCMhDuAHwAX3Afr-28" value="N" style="ellipse;whiteSpace=wrap;html=1;" parent="1" vertex="1">
          <mxGeometry x="20" y="320" width="30" height="30" as="geometry" />
        </mxCell>
        <mxCell id="7sohZnCMhDuAHwAX3Afr-29" value="Article" style="swimlane;fontStyle=0;childLayout=stackLayout;horizontal=1;startSize=26;horizontalStack=0;resizeParent=1;resizeParentMax=0;resizeLast=0;collapsible=1;marginBottom=0;align=center;fontSize=14;" parent="1" vertex="1">
          <mxGeometry x="334" y="10" width="186" height="130" as="geometry" />
        </mxCell>
        <mxCell id="7sohZnCMhDuAHwAX3Afr-30" value="&lt;div&gt;id: &lt;font style=&quot;font-size: 10px;&quot;&gt;&lt;i&gt;SERIAL_PRIMARY KEY&lt;/i&gt;&lt;/font&gt;&lt;/div&gt;&lt;div&gt;title: &lt;font style=&quot;font-size: 10px;&quot;&gt;&lt;i&gt;varchar (100) NOT NULL&lt;/i&gt;&lt;/font&gt;&lt;br&gt;&lt;/div&gt;&lt;div&gt;content:&lt;font style=&quot;font-size: 10px;&quot;&gt;&lt;i&gt;varchar (100) NOT NULL&lt;/i&gt;&lt;/font&gt;&lt;/div&gt;&lt;div&gt;isSaved: &lt;i&gt;&lt;font style=&quot;font-size: 10px;&quot;&gt;boolean NOT NULL&lt;/font&gt;&lt;/i&gt;&lt;/div&gt;&lt;div&gt;&lt;font color=&quot;#ff0000&quot;&gt;blog_id&lt;/font&gt;:&lt;font style=&quot;font-size: 10px;&quot;&gt;&lt;i&gt; int NOT NULL&lt;/i&gt;&lt;/font&gt;&lt;br&gt;&lt;font color=&quot;#ff0000&quot;&gt;user_id&lt;/font&gt;:&lt;font style=&quot;font-size: 10px;&quot;&gt;&lt;i&gt; int NOT NULL&lt;/i&gt;&lt;/font&gt;&lt;/div&gt;" style="text;strokeColor=none;fillColor=none;spacingLeft=4;spacingRight=4;overflow=hidden;rotatable=0;points=[[0,0.5],[1,0.5]];portConstraint=eastwest;fontSize=12;whiteSpace=wrap;html=1;" parent="7sohZnCMhDuAHwAX3Afr-29" vertex="1">
          <mxGeometry y="26" width="186" height="104" as="geometry" />
        </mxCell>
        <mxCell id="DXxMIgeoH6p8PRFtS2XR-1" value="Token" style="swimlane;fontStyle=0;childLayout=stackLayout;horizontal=1;startSize=26;horizontalStack=0;resizeParent=1;resizeParentMax=0;resizeLast=0;collapsible=1;marginBottom=0;align=center;fontSize=14;" parent="1" vertex="1">
          <mxGeometry x="620" y="10" width="200" height="140" as="geometry" />
        </mxCell>
        <mxCell id="DXxMIgeoH6p8PRFtS2XR-2" value="&lt;div&gt;id: &lt;font style=&quot;font-size: 10px;&quot;&gt;&lt;i&gt;SERIAL_PRIMARY KEY&lt;/i&gt;&lt;/font&gt;&lt;/div&gt;&lt;div&gt;token: &lt;font style=&quot;font-size: 10px;&quot;&gt;&lt;i&gt;varchar (255) NOT NULL&lt;/i&gt;&lt;/font&gt;&lt;/div&gt;tokenType: &lt;font style=&quot;font-size: 10px;&quot;&gt;&lt;i&gt;varchar (100) NOT NULL&lt;/i&gt;&lt;/font&gt;&lt;div&gt;revoked: &lt;i&gt;&lt;font style=&quot;font-size: 10px;&quot;&gt;boolean NOT NULL&lt;/font&gt;&lt;/i&gt;&lt;br&gt;expired: &lt;i&gt;&lt;font style=&quot;font-size: 10px;&quot;&gt;boolean NOT NULL&lt;/font&gt;&lt;/i&gt;&lt;/div&gt;&lt;div&gt;&lt;font color=&quot;#ff3333&quot;&gt;user_id&lt;/font&gt;:&lt;font style=&quot;font-size: 10px;&quot;&gt;&lt;i&gt; int NOT NULL&lt;/i&gt;&lt;/font&gt;&lt;/div&gt;" style="text;strokeColor=none;fillColor=none;spacingLeft=4;spacingRight=4;overflow=hidden;rotatable=0;points=[[0,0.5],[1,0.5]];portConstraint=eastwest;fontSize=12;whiteSpace=wrap;html=1;" parent="DXxMIgeoH6p8PRFtS2XR-1" vertex="1">
          <mxGeometry y="26" width="200" height="114" as="geometry" />
        </mxCell>
        <mxCell id="DXxMIgeoH6p8PRFtS2XR-6" style="edgeStyle=orthogonalEdgeStyle;rounded=0;orthogonalLoop=1;jettySize=auto;html=1;entryX=-0.012;entryY=0.19;entryDx=0;entryDy=0;entryPerimeter=0;elbow=vertical;" parent="1" source="7sohZnCMhDuAHwAX3Afr-30" target="7sohZnCMhDuAHwAX3Afr-2" edge="1">
          <mxGeometry relative="1" as="geometry">
            <Array as="points">
              <mxPoint x="310" y="120" />
              <mxPoint x="310" y="252" />
            </Array>
          </mxGeometry>
        </mxCell>
        <mxCell id="DXxMIgeoH6p8PRFtS2XR-7" style="edgeStyle=orthogonalEdgeStyle;rounded=0;orthogonalLoop=1;jettySize=auto;html=1;entryX=0.013;entryY=0.214;entryDx=0;entryDy=0;entryPerimeter=0;elbow=vertical;" parent="1" source="7sohZnCMhDuAHwAX3Afr-6" target="7sohZnCMhDuAHwAX3Afr-2" edge="1">
          <mxGeometry relative="1" as="geometry">
            <Array as="points">
              <mxPoint x="40" y="110" />
              <mxPoint x="40" y="160" />
              <mxPoint x="275" y="160" />
              <mxPoint x="275" y="254" />
            </Array>
          </mxGeometry>
        </mxCell>
      </root>
    </mxGraphModel>
  </diagram>
  <diagram id="g3JRPQujyV-dRJ3nZ5Sx" name="Diagramme d&#39;activité">
    <mxGraphModel dx="1674" dy="746" grid="1" gridSize="10" guides="1" tooltips="1" connect="1" arrows="1" fold="1" page="1" pageScale="1" pageWidth="827" pageHeight="1169" math="0" shadow="0">
      <root>
        <mxCell id="0" />
        <mxCell id="1" parent="0" />
        <mxCell id="Qq3q8cjfgcMQMKfm03O7-38" value="" style="dashed=1;rounded=1;absoluteArcSize=1;arcSize=20;html=1;verticalAlign=top;align=left;spacingTop=5;spacingLeft=10;whiteSpace=wrap;" parent="1" vertex="1">
          <mxGeometry x="90" y="340" width="600" height="440" as="geometry" />
        </mxCell>
        <mxCell id="Qq3q8cjfgcMQMKfm03O7-1" value="Utilisateur non connecté" style="shape=umlActor;verticalLabelPosition=bottom;verticalAlign=top;html=1;" parent="1" vertex="1">
          <mxGeometry x="330" y="20" width="30" height="60" as="geometry" />
        </mxCell>
        <mxCell id="Qq3q8cjfgcMQMKfm03O7-2" value="Consulter les blogs" style="ellipse;whiteSpace=wrap;html=1;" parent="1" vertex="1">
          <mxGeometry x="120" y="200" width="80" height="60" as="geometry" />
        </mxCell>
        <mxCell id="Qq3q8cjfgcMQMKfm03O7-3" value="&amp;nbsp;Consulter les articles" style="ellipse;whiteSpace=wrap;html=1;" parent="1" vertex="1">
          <mxGeometry x="240" y="200" width="66" height="60" as="geometry" />
        </mxCell>
        <mxCell id="Qq3q8cjfgcMQMKfm03O7-4" value="Consulter les commentaires" style="ellipse;whiteSpace=wrap;html=1;" parent="1" vertex="1">
          <mxGeometry x="540" y="195" width="130" height="70" as="geometry" />
        </mxCell>
        <mxCell id="Qq3q8cjfgcMQMKfm03O7-25" value="Système" style="shape=umlFrame;whiteSpace=wrap;html=1;pointerEvents=0;" parent="1" vertex="1">
          <mxGeometry x="80" y="130" width="620" height="660" as="geometry" />
        </mxCell>
        <mxCell id="Qq3q8cjfgcMQMKfm03O7-27" value="Utilisateur connecté" style="shape=umlActor;verticalLabelPosition=bottom;verticalAlign=top;html=1;" parent="1" vertex="1">
          <mxGeometry x="1160" y="400" width="30" height="60" as="geometry" />
        </mxCell>
        <mxCell id="Qq3q8cjfgcMQMKfm03O7-33" value="&lt;div&gt;Créer&lt;/div&gt;&lt;div&gt;&amp;nbsp;les blogs&lt;/div&gt;" style="ellipse;whiteSpace=wrap;html=1;" parent="1" vertex="1">
          <mxGeometry x="180" y="410" width="80" height="60" as="geometry" />
        </mxCell>
        <mxCell id="Qq3q8cjfgcMQMKfm03O7-32" value="se connecter à la plateforme" style="ellipse;whiteSpace=wrap;html=1;" parent="1" vertex="1">
          <mxGeometry x="354" y="195" width="120" height="80" as="geometry" />
        </mxCell>
        <mxCell id="Qq3q8cjfgcMQMKfm03O7-34" value="&lt;div&gt;Modifier&lt;br&gt;&lt;/div&gt;&lt;div&gt;&amp;nbsp;les blogs&lt;/div&gt;" style="ellipse;whiteSpace=wrap;html=1;" parent="1" vertex="1">
          <mxGeometry x="540" y="350" width="80" height="60" as="geometry" />
        </mxCell>
        <mxCell id="Qq3q8cjfgcMQMKfm03O7-35" value="&lt;div&gt;Supprimer&lt;br&gt;&lt;/div&gt;&lt;div&gt;&amp;nbsp;les blogs&lt;/div&gt;" style="ellipse;whiteSpace=wrap;html=1;" parent="1" vertex="1">
          <mxGeometry x="350" y="350" width="80" height="60" as="geometry" />
        </mxCell>
        <mxCell id="Qq3q8cjfgcMQMKfm03O7-39" value="&amp;nbsp;Créer les articles" style="ellipse;whiteSpace=wrap;html=1;" parent="1" vertex="1">
          <mxGeometry x="187" y="525" width="66" height="60" as="geometry" />
        </mxCell>
        <mxCell id="Qq3q8cjfgcMQMKfm03O7-40" value="&amp;nbsp;Modifier les articles" style="ellipse;whiteSpace=wrap;html=1;" parent="1" vertex="1">
          <mxGeometry x="374" y="530" width="66" height="60" as="geometry" />
        </mxCell>
        <mxCell id="Qq3q8cjfgcMQMKfm03O7-41" value="Supprimer les articles" style="ellipse;whiteSpace=wrap;html=1;" parent="1" vertex="1">
          <mxGeometry x="530" y="540" width="66" height="60" as="geometry" />
        </mxCell>
        <mxCell id="Qq3q8cjfgcMQMKfm03O7-42" value="Créer les commentaires" style="ellipse;whiteSpace=wrap;html=1;" parent="1" vertex="1">
          <mxGeometry x="200" y="660" width="90" height="60" as="geometry" />
        </mxCell>
        <mxCell id="Qq3q8cjfgcMQMKfm03O7-43" value="Modifier les commentaires" style="ellipse;whiteSpace=wrap;html=1;" parent="1" vertex="1">
          <mxGeometry x="345" y="670" width="90" height="60" as="geometry" />
        </mxCell>
        <mxCell id="Qq3q8cjfgcMQMKfm03O7-44" value="Supprimer les commentaires" style="ellipse;whiteSpace=wrap;html=1;" parent="1" vertex="1">
          <mxGeometry x="530" y="710" width="90" height="60" as="geometry" />
        </mxCell>
        <mxCell id="Qq3q8cjfgcMQMKfm03O7-46" value="&amp;lt;&amp;lt;include&amp;gt;&amp;gt;" style="endArrow=none;html=1;endSize=12;startArrow=none;startSize=14;startFill=0;edgeStyle=orthogonalEdgeStyle;align=center;verticalAlign=bottom;endFill=0;rounded=0;" parent="1" edge="1">
          <mxGeometry x="0.125" y="40" relative="1" as="geometry">
            <mxPoint x="413" y="270" as="sourcePoint" />
            <mxPoint x="413" y="340" as="targetPoint" />
            <Array as="points">
              <mxPoint x="413" y="340" />
              <mxPoint x="413" y="340" />
            </Array>
            <mxPoint as="offset" />
          </mxGeometry>
        </mxCell>
        <mxCell id="NTwFjf6D2xB-B7SQ1Kkz-6" value="" style="endArrow=none;html=1;rounded=0;exitX=0.338;exitY=-0.067;exitDx=0;exitDy=0;exitPerimeter=0;" parent="1" edge="1">
          <mxGeometry width="50" height="50" relative="1" as="geometry">
            <mxPoint x="239.99999999999997" y="440" as="sourcePoint" />
            <mxPoint x="1100" y="460" as="targetPoint" />
          </mxGeometry>
        </mxCell>
        <mxCell id="NTwFjf6D2xB-B7SQ1Kkz-7" value="" style="endArrow=none;html=1;rounded=0;exitX=0.388;exitY=-0.083;exitDx=0;exitDy=0;exitPerimeter=0;" parent="1" edge="1">
          <mxGeometry width="50" height="50" relative="1" as="geometry">
            <mxPoint x="389.99999999999994" y="410" as="sourcePoint" />
            <mxPoint x="1080" y="460" as="targetPoint" />
          </mxGeometry>
        </mxCell>
        <mxCell id="NTwFjf6D2xB-B7SQ1Kkz-8" value="" style="endArrow=none;html=1;rounded=0;" parent="1" source="Qq3q8cjfgcMQMKfm03O7-34" edge="1">
          <mxGeometry width="50" height="50" relative="1" as="geometry">
            <mxPoint x="800" y="390" as="sourcePoint" />
            <mxPoint x="1100" y="460" as="targetPoint" />
          </mxGeometry>
        </mxCell>
        <mxCell id="NTwFjf6D2xB-B7SQ1Kkz-15" value="" style="endArrow=none;html=1;rounded=0;exitX=0.75;exitY=0.063;exitDx=0;exitDy=0;exitPerimeter=0;" parent="1" source="Qq3q8cjfgcMQMKfm03O7-32" edge="1">
          <mxGeometry width="50" height="50" relative="1" as="geometry">
            <mxPoint x="394" y="170" as="sourcePoint" />
            <mxPoint x="340" y="110" as="targetPoint" />
          </mxGeometry>
        </mxCell>
        <mxCell id="NTwFjf6D2xB-B7SQ1Kkz-16" value="" style="endArrow=none;html=1;rounded=0;exitX=1;exitY=0.5;exitDx=0;exitDy=0;" parent="1" source="Qq3q8cjfgcMQMKfm03O7-39" edge="1">
          <mxGeometry width="50" height="50" relative="1" as="geometry">
            <mxPoint x="260.0045573766985" y="556.5211007026701" as="sourcePoint" />
            <mxPoint x="1100" y="460" as="targetPoint" />
          </mxGeometry>
        </mxCell>
        <mxCell id="NTwFjf6D2xB-B7SQ1Kkz-17" value="" style="endArrow=none;html=1;rounded=0;exitX=1;exitY=1;exitDx=0;exitDy=0;" parent="1" edge="1">
          <mxGeometry width="50" height="50" relative="1" as="geometry">
            <mxPoint x="440.0045237791564" y="551.2132034355966" as="sourcePoint" />
            <mxPoint x="1100" y="460" as="targetPoint" />
          </mxGeometry>
        </mxCell>
        <mxCell id="NTwFjf6D2xB-B7SQ1Kkz-18" value="" style="endArrow=none;html=1;rounded=0;" parent="1" source="Qq3q8cjfgcMQMKfm03O7-41" edge="1">
          <mxGeometry width="50" height="50" relative="1" as="geometry">
            <mxPoint x="800" y="380" as="sourcePoint" />
            <mxPoint x="1110" y="460" as="targetPoint" />
          </mxGeometry>
        </mxCell>
        <mxCell id="NTwFjf6D2xB-B7SQ1Kkz-19" value="" style="endArrow=none;html=1;rounded=0;exitX=1.022;exitY=0.367;exitDx=0;exitDy=0;exitPerimeter=0;" parent="1" source="Qq3q8cjfgcMQMKfm03O7-42" edge="1">
          <mxGeometry width="50" height="50" relative="1" as="geometry">
            <mxPoint x="800" y="530" as="sourcePoint" />
            <mxPoint x="1110" y="460" as="targetPoint" />
          </mxGeometry>
        </mxCell>
        <mxCell id="NTwFjf6D2xB-B7SQ1Kkz-20" value="" style="endArrow=none;html=1;rounded=0;exitX=0.933;exitY=0.717;exitDx=0;exitDy=0;exitPerimeter=0;" parent="1" source="Qq3q8cjfgcMQMKfm03O7-43" edge="1">
          <mxGeometry width="50" height="50" relative="1" as="geometry">
            <mxPoint x="800" y="530" as="sourcePoint" />
            <mxPoint x="1110" y="460" as="targetPoint" />
          </mxGeometry>
        </mxCell>
        <mxCell id="NTwFjf6D2xB-B7SQ1Kkz-22" value="" style="endArrow=none;html=1;rounded=0;exitX=1;exitY=0;exitDx=0;exitDy=0;" parent="1" source="Qq3q8cjfgcMQMKfm03O7-44" edge="1">
          <mxGeometry width="50" height="50" relative="1" as="geometry">
            <mxPoint x="800" y="530" as="sourcePoint" />
            <mxPoint x="1110" y="460" as="targetPoint" />
          </mxGeometry>
        </mxCell>
        <mxCell id="NTwFjf6D2xB-B7SQ1Kkz-23" value="" style="endArrow=none;html=1;rounded=0;" parent="1" source="Qq3q8cjfgcMQMKfm03O7-4" edge="1">
          <mxGeometry width="50" height="50" relative="1" as="geometry">
            <mxPoint x="454" y="180" as="sourcePoint" />
            <mxPoint x="340" y="110" as="targetPoint" />
          </mxGeometry>
        </mxCell>
        <mxCell id="NTwFjf6D2xB-B7SQ1Kkz-24" value="" style="endArrow=none;html=1;rounded=0;" parent="1" edge="1">
          <mxGeometry width="50" height="50" relative="1" as="geometry">
            <mxPoint x="280" y="190" as="sourcePoint" />
            <mxPoint x="340" y="110" as="targetPoint" />
          </mxGeometry>
        </mxCell>
        <mxCell id="NTwFjf6D2xB-B7SQ1Kkz-27" value="" style="endArrow=none;html=1;rounded=0;" parent="1" edge="1">
          <mxGeometry width="50" height="50" relative="1" as="geometry">
            <mxPoint x="176" y="195" as="sourcePoint" />
            <mxPoint x="340" y="110" as="targetPoint" />
          </mxGeometry>
        </mxCell>
        <mxCell id="NTwFjf6D2xB-B7SQ1Kkz-29" value="" style="endArrow=none;html=1;rounded=0;" parent="1" edge="1">
          <mxGeometry width="50" height="50" relative="1" as="geometry">
            <mxPoint x="160" y="290" as="sourcePoint" />
            <mxPoint x="159.5" y="260" as="targetPoint" />
          </mxGeometry>
        </mxCell>
        <mxCell id="NTwFjf6D2xB-B7SQ1Kkz-30" value="" style="endArrow=none;html=1;rounded=0;" parent="1" edge="1">
          <mxGeometry width="50" height="50" relative="1" as="geometry">
            <mxPoint x="280" y="290" as="sourcePoint" />
            <mxPoint x="280" y="260" as="targetPoint" />
          </mxGeometry>
        </mxCell>
        <mxCell id="NTwFjf6D2xB-B7SQ1Kkz-31" value="" style="endArrow=none;html=1;rounded=0;" parent="1" edge="1">
          <mxGeometry width="50" height="50" relative="1" as="geometry">
            <mxPoint x="374" y="260" as="sourcePoint" />
            <mxPoint x="374" y="290" as="targetPoint" />
          </mxGeometry>
        </mxCell>
        <mxCell id="NTwFjf6D2xB-B7SQ1Kkz-33" value="" style="endArrow=none;html=1;rounded=0;" parent="1" edge="1">
          <mxGeometry width="50" height="50" relative="1" as="geometry">
            <mxPoint x="140" y="290" as="sourcePoint" />
            <mxPoint x="830" y="290" as="targetPoint" />
          </mxGeometry>
        </mxCell>
        <mxCell id="NTwFjf6D2xB-B7SQ1Kkz-35" value="" style="endArrow=none;html=1;rounded=0;" parent="1" edge="1">
          <mxGeometry width="50" height="50" relative="1" as="geometry">
            <mxPoint x="830" y="290" as="sourcePoint" />
            <mxPoint x="1110" y="460" as="targetPoint" />
          </mxGeometry>
        </mxCell>
        <mxCell id="NTwFjf6D2xB-B7SQ1Kkz-36" value="" style="endArrow=none;html=1;rounded=0;" parent="1" edge="1">
          <mxGeometry width="50" height="50" relative="1" as="geometry">
            <mxPoint x="610" y="290" as="sourcePoint" />
            <mxPoint x="610" y="265" as="targetPoint" />
          </mxGeometry>
        </mxCell>
      </root>
    </mxGraphModel>
  </diagram>
  <diagram id="REqqlAehYeZtZLq3T7ga" name="Diagramme de classe">
    <mxGraphModel dx="1674" dy="746" grid="1" gridSize="10" guides="1" tooltips="1" connect="1" arrows="1" fold="1" page="1" pageScale="1" pageWidth="827" pageHeight="1169" math="0" shadow="0">
      <root>
        <mxCell id="0" />
        <mxCell id="1" parent="0" />
        <mxCell id="4hhIFufCxNlyuuTGdkI3-1" value="User" style="swimlane;fontStyle=0;childLayout=stackLayout;horizontal=1;startSize=26;fillColor=none;horizontalStack=0;resizeParent=1;resizeParentMax=0;resizeLast=0;collapsible=1;marginBottom=0;whiteSpace=wrap;html=1;" vertex="1" parent="1">
          <mxGeometry x="350" y="440" width="140" height="200" as="geometry" />
        </mxCell>
        <mxCell id="4hhIFufCxNlyuuTGdkI3-2" value="&lt;div&gt;- id: Integer&lt;/div&gt;&lt;div&gt;&lt;br&gt;&lt;/div&gt;&lt;div&gt;-username: String&lt;/div&gt;&lt;div&gt;&lt;br&gt;&lt;/div&gt;&lt;div&gt;-email: String&lt;/div&gt;&lt;div&gt;&lt;br&gt;&lt;/div&gt;&lt;div&gt;-password: String&lt;br&gt;&lt;/div&gt;&lt;div&gt;&lt;br&gt;&lt;/div&gt;&lt;div&gt;&lt;br&gt;&lt;/div&gt;&lt;div&gt;getEmail(): String&lt;/div&gt;&lt;div&gt;getPassword(): String&lt;/div&gt;" style="text;strokeColor=none;fillColor=none;align=left;verticalAlign=top;spacingLeft=4;spacingRight=4;overflow=hidden;rotatable=0;points=[[0,0.5],[1,0.5]];portConstraint=eastwest;whiteSpace=wrap;html=1;" vertex="1" parent="4hhIFufCxNlyuuTGdkI3-1">
          <mxGeometry y="26" width="140" height="174" as="geometry" />
        </mxCell>
        <mxCell id="g7KGNCeZi54rFdpXLlov-2" value="" style="endArrow=none;html=1;rounded=0;entryX=1;entryY=0.776;entryDx=0;entryDy=0;entryPerimeter=0;" edge="1" parent="4hhIFufCxNlyuuTGdkI3-1" target="4hhIFufCxNlyuuTGdkI3-2">
          <mxGeometry width="50" height="50" relative="1" as="geometry">
            <mxPoint y="160" as="sourcePoint" />
            <mxPoint x="50" y="110" as="targetPoint" />
          </mxGeometry>
        </mxCell>
        <mxCell id="4hhIFufCxNlyuuTGdkI3-5" value="Blog" style="swimlane;fontStyle=0;childLayout=stackLayout;horizontal=1;startSize=26;fillColor=none;horizontalStack=0;resizeParent=1;resizeParentMax=0;resizeLast=0;collapsible=1;marginBottom=0;whiteSpace=wrap;html=1;" vertex="1" parent="1">
          <mxGeometry x="65" y="620" width="170" height="140" as="geometry" />
        </mxCell>
        <mxCell id="4hhIFufCxNlyuuTGdkI3-6" value="&lt;div&gt;- id: Integer&lt;/div&gt;&lt;div&gt;&lt;br&gt;&lt;/div&gt;&lt;div&gt;-title: String&lt;br&gt;&lt;/div&gt;&lt;div&gt;&lt;br&gt;&lt;/div&gt;&lt;div&gt;&lt;br&gt;&lt;/div&gt;&lt;div&gt;getBlogsByCategory(): String&lt;br&gt;&lt;/div&gt;" style="text;strokeColor=none;fillColor=none;align=left;verticalAlign=top;spacingLeft=4;spacingRight=4;overflow=hidden;rotatable=0;points=[[0,0.5],[1,0.5]];portConstraint=eastwest;whiteSpace=wrap;html=1;" vertex="1" parent="4hhIFufCxNlyuuTGdkI3-5">
          <mxGeometry y="26" width="170" height="114" as="geometry" />
        </mxCell>
        <mxCell id="g7KGNCeZi54rFdpXLlov-8" value="" style="endArrow=none;html=1;rounded=0;entryX=1.029;entryY=0.658;entryDx=0;entryDy=0;entryPerimeter=0;" edge="1" parent="4hhIFufCxNlyuuTGdkI3-5" target="4hhIFufCxNlyuuTGdkI3-6">
          <mxGeometry width="50" height="50" relative="1" as="geometry">
            <mxPoint y="100" as="sourcePoint" />
            <mxPoint x="140" y="101" as="targetPoint" />
          </mxGeometry>
        </mxCell>
        <mxCell id="4hhIFufCxNlyuuTGdkI3-9" value="Article" style="swimlane;fontStyle=0;childLayout=stackLayout;horizontal=1;startSize=26;fillColor=none;horizontalStack=0;resizeParent=1;resizeParentMax=0;resizeLast=0;collapsible=1;marginBottom=0;whiteSpace=wrap;html=1;" vertex="1" parent="1">
          <mxGeometry x="320" y="165" width="220" height="200" as="geometry">
            <mxRectangle x="430" y="250" width="70" height="30" as="alternateBounds" />
          </mxGeometry>
        </mxCell>
        <mxCell id="4hhIFufCxNlyuuTGdkI3-10" value="&lt;div&gt;- id: Integer&lt;/div&gt;&lt;div&gt;&lt;br&gt;&lt;/div&gt;&lt;div&gt;-title: String&lt;/div&gt;&lt;div&gt;&lt;br&gt;&lt;/div&gt;&lt;div&gt;-content: String&lt;/div&gt;&lt;div&gt;&lt;br&gt;&lt;/div&gt;&lt;div&gt;-isSaved: boolean&lt;br&gt;&lt;/div&gt;&lt;div&gt;&lt;br&gt;&lt;/div&gt;&lt;div&gt;&lt;br&gt;&lt;/div&gt;&lt;div&gt;getArticleByBlogId(): String&lt;br&gt;&lt;/div&gt;" style="text;strokeColor=none;fillColor=none;align=left;verticalAlign=top;spacingLeft=4;spacingRight=4;overflow=hidden;rotatable=0;points=[[0,0.5],[1,0.5]];portConstraint=eastwest;whiteSpace=wrap;html=1;" vertex="1" parent="4hhIFufCxNlyuuTGdkI3-9">
          <mxGeometry y="26" width="220" height="174" as="geometry" />
        </mxCell>
        <mxCell id="g7KGNCeZi54rFdpXLlov-5" value="" style="endArrow=none;html=1;rounded=0;entryX=1.009;entryY=0.741;entryDx=0;entryDy=0;entryPerimeter=0;" edge="1" parent="4hhIFufCxNlyuuTGdkI3-9" target="4hhIFufCxNlyuuTGdkI3-10">
          <mxGeometry width="50" height="50" relative="1" as="geometry">
            <mxPoint y="155" as="sourcePoint" />
            <mxPoint x="140" y="156" as="targetPoint" />
          </mxGeometry>
        </mxCell>
        <mxCell id="4hhIFufCxNlyuuTGdkI3-13" value="Comments" style="swimlane;fontStyle=0;childLayout=stackLayout;horizontal=1;startSize=26;fillColor=none;horizontalStack=0;resizeParent=1;resizeParentMax=0;resizeLast=0;collapsible=1;marginBottom=0;whiteSpace=wrap;html=1;" vertex="1" parent="1">
          <mxGeometry x="640" y="600" width="140" height="90" as="geometry" />
        </mxCell>
        <mxCell id="4hhIFufCxNlyuuTGdkI3-14" value="&lt;div&gt;- id: Integer&lt;/div&gt;&lt;div&gt;&lt;br&gt;&lt;/div&gt;&lt;div&gt;-content: String&lt;br&gt;&lt;/div&gt;" style="text;strokeColor=none;fillColor=none;align=left;verticalAlign=top;spacingLeft=4;spacingRight=4;overflow=hidden;rotatable=0;points=[[0,0.5],[1,0.5]];portConstraint=eastwest;whiteSpace=wrap;html=1;" vertex="1" parent="4hhIFufCxNlyuuTGdkI3-13">
          <mxGeometry y="26" width="140" height="64" as="geometry" />
        </mxCell>
        <mxCell id="4hhIFufCxNlyuuTGdkI3-17" value="Token" style="swimlane;fontStyle=0;childLayout=stackLayout;horizontal=1;startSize=20;fillColor=none;horizontalStack=0;resizeParent=1;resizeParentMax=0;resizeLast=0;collapsible=1;marginBottom=0;whiteSpace=wrap;html=1;" vertex="1" parent="1">
          <mxGeometry x="640" y="320" width="140" height="194" as="geometry" />
        </mxCell>
        <mxCell id="4hhIFufCxNlyuuTGdkI3-18" value="&lt;div&gt;- id: Integer&lt;/div&gt;&lt;div&gt;&lt;br&gt;&lt;/div&gt;&lt;div&gt;-token: String&lt;/div&gt;&lt;div&gt;&lt;br&gt;&lt;/div&gt;&lt;div&gt;-tokenType: String&lt;/div&gt;&lt;div&gt;&lt;br&gt;&lt;/div&gt;&lt;div&gt;-revoked: boolean&lt;/div&gt;&lt;div&gt;&lt;br&gt;&lt;/div&gt;&lt;div&gt;-expired: boolean&lt;br&gt;&lt;/div&gt;&lt;div&gt;&lt;br&gt;&lt;/div&gt;&lt;div&gt;getToken(): String&lt;br&gt;&lt;/div&gt;" style="text;strokeColor=none;fillColor=none;align=left;verticalAlign=top;spacingLeft=4;spacingRight=4;overflow=hidden;rotatable=0;points=[[0,0.5],[1,0.5]];portConstraint=eastwest;whiteSpace=wrap;html=1;" vertex="1" parent="4hhIFufCxNlyuuTGdkI3-17">
          <mxGeometry y="20" width="140" height="174" as="geometry" />
        </mxCell>
        <mxCell id="g7KGNCeZi54rFdpXLlov-6" value="" style="endArrow=none;html=1;rounded=0;entryX=1;entryY=0.776;entryDx=0;entryDy=0;entryPerimeter=0;" edge="1" parent="4hhIFufCxNlyuuTGdkI3-17">
          <mxGeometry width="50" height="50" relative="1" as="geometry">
            <mxPoint y="166" as="sourcePoint" />
            <mxPoint x="140" y="167" as="targetPoint" />
          </mxGeometry>
        </mxCell>
        <mxCell id="4hhIFufCxNlyuuTGdkI3-21" value="Category" style="swimlane;fontStyle=0;childLayout=stackLayout;horizontal=1;startSize=26;fillColor=none;horizontalStack=0;resizeParent=1;resizeParentMax=0;resizeLast=0;collapsible=1;marginBottom=0;whiteSpace=wrap;html=1;" vertex="1" parent="1">
          <mxGeometry x="40" y="410" width="140" height="120" as="geometry" />
        </mxCell>
        <mxCell id="g7KGNCeZi54rFdpXLlov-4" value="" style="endArrow=none;html=1;rounded=0;entryX=1;entryY=0.776;entryDx=0;entryDy=0;entryPerimeter=0;" edge="1" parent="4hhIFufCxNlyuuTGdkI3-21">
          <mxGeometry width="50" height="50" relative="1" as="geometry">
            <mxPoint y="80" as="sourcePoint" />
            <mxPoint x="140" y="81" as="targetPoint" />
          </mxGeometry>
        </mxCell>
        <mxCell id="4hhIFufCxNlyuuTGdkI3-22" value="&lt;div&gt;- id: Integer&lt;/div&gt;&lt;div&gt;&lt;br&gt;&lt;/div&gt;&lt;div&gt;-name: String&lt;br&gt;&lt;/div&gt;&lt;div&gt;&lt;br&gt;&lt;/div&gt;&lt;div&gt;&lt;br&gt;&lt;/div&gt;getCategory(): String" style="text;strokeColor=none;fillColor=none;align=left;verticalAlign=top;spacingLeft=4;spacingRight=4;overflow=hidden;rotatable=0;points=[[0,0.5],[1,0.5]];portConstraint=eastwest;whiteSpace=wrap;html=1;" vertex="1" parent="4hhIFufCxNlyuuTGdkI3-21">
          <mxGeometry y="26" width="140" height="94" as="geometry" />
        </mxCell>
        <mxCell id="g0Ohb9WGo4mWv2MWmZnr-1" value="" style="line;strokeWidth=1;fillColor=none;align=left;verticalAlign=middle;spacingTop=-1;spacingLeft=3;spacingRight=3;rotatable=0;labelPosition=right;points=[];portConstraint=eastwest;strokeColor=inherit;" vertex="1" parent="1">
          <mxGeometry x="180" y="480" width="170" height="8" as="geometry" />
        </mxCell>
        <mxCell id="g0Ohb9WGo4mWv2MWmZnr-3" value="" style="line;strokeWidth=1;fillColor=none;align=left;verticalAlign=middle;spacingTop=-1;spacingLeft=3;spacingRight=3;rotatable=0;labelPosition=right;points=[];portConstraint=eastwest;strokeColor=inherit;" vertex="1" parent="1">
          <mxGeometry x="235" y="630" width="115" height="8" as="geometry" />
        </mxCell>
        <mxCell id="g0Ohb9WGo4mWv2MWmZnr-5" value="" style="line;strokeWidth=1;fillColor=none;align=left;verticalAlign=middle;spacingTop=-1;spacingLeft=3;spacingRight=3;rotatable=0;labelPosition=right;points=[];portConstraint=eastwest;strokeColor=inherit;" vertex="1" parent="1">
          <mxGeometry x="490" y="472" width="150" height="8" as="geometry" />
        </mxCell>
        <mxCell id="g0Ohb9WGo4mWv2MWmZnr-6" value="" style="line;strokeWidth=1;fillColor=none;align=left;verticalAlign=middle;spacingTop=-1;spacingLeft=3;spacingRight=3;rotatable=0;labelPosition=right;points=[];portConstraint=eastwest;strokeColor=inherit;" vertex="1" parent="1">
          <mxGeometry x="490" y="612" width="150" height="8" as="geometry" />
        </mxCell>
      </root>
    </mxGraphModel>
  </diagram>
</mxfile>
